<?xml version="1.0" encoding="UTF-8" standalone="no"?>
<!-- Created with Inkscape (http://www.inkscape.org/) -->

<svg
   width="256"
   height="256"
   viewBox="0 0 256 256"
   version="1.1"
   id="svg8"
   inkscape:version="1.2.2 (732a01da63, 2022-12-09)"
   sodipodi:docname="noh-logo.svg"
   xmlns:inkscape="http://www.inkscape.org/namespaces/inkscape"
   xmlns:sodipodi="http://sodipodi.sourceforge.net/DTD/sodipodi-0.dtd"
   xmlns="http://www.w3.org/2000/svg"
   xmlns:svg="http://www.w3.org/2000/svg"
   xmlns:rdf="http://www.w3.org/1999/02/22-rdf-syntax-ns#"
   xmlns:cc="http://creativecommons.org/ns#"
   xmlns:dc="http://purl.org/dc/elements/1.1/">
  <defs
     id="defs2" />
  <sodipodi:namedview
     id="base"
     pagecolor="#ffffff"
     bordercolor="#666666"
     borderopacity="1.0"
     inkscape:pageopacity="0.0"
     inkscape:pageshadow="2"
     inkscape:zoom="2.2531646"
     inkscape:cx="244.98876"
     inkscape:cy="127.3764"
     inkscape:document-units="px"
     inkscape:current-layer="layer1"
     showgrid="true"
     units="px"
     inkscape:pagecheckerboard="true"
     borderlayer="true"
     gridtolerance="10"
     inkscape:snap-smooth-nodes="true"
     inkscape:snap-text-baseline="true"
     inkscape:snap-page="true"
     showguides="true"
     inkscape:guide-bbox="true"
     inkscape:showpageshadow="0"
     inkscape:deskcolor="#d1d1d1"
     inkscape:window-width="1920"
     inkscape:window-height="1027"
     inkscape:window-x="-8"
     inkscape:window-y="-8"
     inkscape:window-maximized="1">
    <inkscape:grid
       type="xygrid"
       id="grid4131"
       empspacing="4"
       originx="0"
       originy="0"
       spacingx="8"
       spacingy="8" />
  </sodipodi:namedview>
  <metadata
     id="metadata5">
    <rdf:RDF>
      <cc:Work
         rdf:about="">
        <dc:format>image/svg+xml</dc:format>
        <dc:type
           rdf:resource="http://purl.org/dc/dcmitype/StillImage" />
      </cc:Work>
    </rdf:RDF>
  </metadata>
  <g
     inkscape:label="レイヤー 1"
     inkscape:groupmode="layer"
     id="layer1"
     transform="translate(0,-106.49999)">
    <path
       style="fill:#bd71de;fill-opacity:1;stroke:none;stroke-width:24;stroke-linejoin:round;stroke-dasharray:none;stroke-opacity:1;paint-order:stroke fill markers;stop-color:#000000"
       d="m 95.421347,276.03931 c 21.271943,30.37949 68.598963,29.10728 111.133343,9.27318 19.79362,-18.14958 37.10261,-35.01475 37.10261,-66.08216 0,-31.06742 -15.08989,-102.07865 -111.39887,-102.07865 -96.308992,0 -117.168543,64.79775 -117.168543,97.64044 0,32.8427 27.073034,64.79775 80.33146,61.24719 z"
       id="path3347"
       sodipodi:nodetypes="cc" />
    <path
       id="path1615"
       style="fill:#5b2e81;fill-opacity:1;stroke-width:12;stroke-linejoin:round;paint-order:stroke fill markers;stop-color:#000000"
       d="m 130.94141,106.49999 c -47.040993,0 -80.410975,15.34618 -101.4043,36.73633 C 8.5437834,164.62647 0,191.22673 0,213.49999 c 0,22.61911 7.8994999,41.90869 22.56836,54.58008 14.668858,12.67139 34.920051,18.41992 58.166015,18.41992 55.999945,0 79.339845,-32.59965 79.339845,-72.59961 0,-26.56786 -15.73049,-44.67383 -39.73047,-44.67383 -18.81331,0 -30.662109,13.21926 -30.662109,27.63477 0,15.98317 9.537235,23.7215 24.632809,23.625 -11.96895,-1.18599 -15.423825,-12.53393 -15.423825,-21.27539 0,-11.34671 9.056765,-17.10157 20.972655,-17.10157 15.99999,1e-5 24.21094,7.1785 24.21094,30.38868 0,31.33424 -23.33989,50.00195 -63.339845,50.00195 -19.297032,0 -33.413921,-4.75151 -42.476562,-12.58008 C 29.195171,242.09134 24,230.8808 24,213.49999 c 0,-16.01371 6.434813,-36.91511 22.666016,-53.45313 16.231203,-16.538 42.333133,-29.54687 84.275394,-29.54687 37.18098,0 61.90626,10.71363 77.75195,26.50586 15.84569,15.79223 23.38086,37.39172 23.38086,61.49414 0,32.14356 -14.63247,53.73822 -42.30859,71.12695 l 16.86328,2.68555 c 29.07858,-16.43875 49.44531,-41.85468 49.44531,-73.8125 0,-29.21158 -9.4896,-57.61302 -30.43945,-78.49219 -20.94986,-20.87917 -52.78977,-33.50781 -94.69336,-33.50781 z" />
    <path
       style="fill:#f561b1;fill-opacity:1;stroke:none;stroke-width:24;stroke-linejoin:round;stroke-dasharray:none;stroke-opacity:1;paint-order:stroke fill markers;stop-color:#000000"
       d="m 157.87109,362.49999 c -39.26577,-20.95212 -48.49113,-47.1209 -44.71126,-67.96681 3.67035,-20.24193 31.79563,-31.78741 56.39354,-8.06409 50.15168,-12.42697 68.06241,61.74439 -11.68228,76.0309 z"
       id="path5179"
       sodipodi:nodetypes="csc" />
    <path
       id="path235"
       style="fill:#a60a50;fill-opacity:1;stroke-width:12;stroke-linejoin:round;paint-order:stroke fill markers;stop-color:#000000"
       d="m 188.62891,247.798 c -10.16976,0 -16.23097,5.88764 -22.22852,13.60238 16.6473,-2.70391 35.33397,1.59979 51.59961,18.90039 -1.75038,-9.45412 -8.49453,-21.51317 -15.52664,-27.29015 -3.59052,-2.94968 -8.13222,-5.21262 -13.84445,-5.21262 z m 2.78515,32.41683 c -20.57141,0 -34.22853,11.77634 -37.41406,20.57032 26.38266,-14.18792 48,-1.10863 48,13.71484 0,15.71561 -18.61564,40.24943 -44.12891,48 44.64603,-3.61708 68.12891,-28.86281 68.12891,-48 0,-15.49828 -11.5733,-34.28516 -34.58594,-34.28516 z"
       sodipodi:nodetypes="sccssscscss" />
    <path
       d="m 36.417596,336.37639 c 0.606012,-4.12088 0.787815,-41.08763 0.424208,-41.45124 -0.363607,-0.36361 -8.42357,-0.4848 -10.484011,0.0606 -0.242405,3.15126 0.121202,15.63513 0,25.39191 -5.090503,-9.33259 -15.392712,-25.1495 -16.059325,-26.17972 -0.3030064,-0.42421 -9.75679769,-0.42421 -9.99920258,0.66661 -0.48480982,4.12088 -0.30300613,38.23938 0,41.69364 0.0606012,0.60602 8.48417168,0.54542 10.54461358,0 0.181803,-4.54508 -0.181804,-15.4533 -0.181804,-24.17989 5.878318,9.09019 14.604896,23.33147 15.756318,24.78591 0.727215,0.48481 9.756798,0.303 9.999203,-0.78782 z"
       style="font-weight:bold;font-size:40px;line-height:1.2;font-family:Mikado;-inkscape-font-specification:'Mikado Bold';text-align:start;letter-spacing:0px;text-anchor:start;fill:#5b2e81;fill-opacity:1;stroke-width:36.3607;stroke-linejoin:round;paint-order:stroke fill markers"
       id="path7007" />
    <path
       d="m 61.173905,322.3775 c 0,4.24209 -2.242245,6.78735 -6.48433,6.66614 -2.848258,-0.0606 -5.575313,-2.36344 -5.575313,-6.60553 0,-3.93908 2.121042,-6.66613 6.42373,-6.54494 2.848257,0.12121 5.635913,1.63623 5.635913,6.48433 z m -6.120723,-15.69571 c -9.453791,0 -15.27151,7.45395 -15.27151,15.0291 0,9.87801 6.787339,15.81692 15.392713,15.81692 9.696195,-0.1818 15.33211,-7.21154 15.33211,-15.0291 0,-9.9992 -6.847939,-15.81692 -15.453313,-15.81692 z"
       style="font-weight:bold;font-size:40px;line-height:1.2;font-family:Mikado;-inkscape-font-specification:'Mikado Bold';text-align:start;letter-spacing:0px;text-anchor:start;fill:#5b2e81;fill-opacity:1;stroke-width:36.3607;stroke-linejoin:round;paint-order:stroke fill markers"
       id="path7009"
       sodipodi:nodetypes="scscssscss" />
    <path
       d="m 73.597159,291.41028 c -0.303007,3.33307 -0.121203,44.96611 0.0606,45.32972 0.181804,0.36361 9.211386,0.48481 9.39319,0.2424 0.181803,-0.1818 0.242405,-14.9079 0.242405,-16.96834 0,-2.36345 1.818037,-4.9693 5.151103,-4.9693 3.151265,0 4.545093,2.96946 4.545093,5.51471 0,2.18165 -0.181803,15.75632 -0.0606,16.42293 0.121202,0.12121 9.09018,0.18181 9.39319,-0.36361 0.36361,-1.15142 0.84842,-13.02926 0.84842,-17.08953 0,-7.81757 -4.120887,-13.02927 -12.362654,-13.02927 -4.242085,0 -6.605534,1.81803 -7.93876,3.63607 0.181804,-1.51504 0.484809,-17.02894 0.303006,-18.54397 -0.242405,-1.33323 -9.211386,-0.54541 -9.574993,-0.18181 z"
       style="font-weight:bold;font-size:40px;line-height:1.2;font-family:Mikado;-inkscape-font-specification:'Mikado Bold';text-align:start;letter-spacing:0px;text-anchor:start;fill:#5b2e81;fill-opacity:1;stroke-width:36.3607;stroke-linejoin:round;paint-order:stroke fill markers"
       id="path7011"
       sodipodi:nodetypes="cscsssccssccc" />
    <path
       d="m 10.193501,355.28304 c -0.3995551,-0.0499 -5.7186282,0 -7.9161796,0.0749 0.049944,-1.12375 0.2247496,-15.23303 0.1748052,-15.65756 -0.099889,-0.0749 -2.147607,0 -2.2474957,0.12487 -0.0998887,2.12263 -0.27469392,15.13313 -0.17480522,17.53046 0.27469392,0.17481 10.23859132,0.025 10.26356332,-0.025 0.02497,-0.17481 0.09989,-1.72308 -0.09989,-2.04772 z"
       style="font-size:22px;line-height:1.2;font-family:Mikado;-inkscape-font-specification:Mikado;text-align:start;letter-spacing:0px;text-anchor:start;fill:#a60a50;fill-opacity:1;stroke-width:27.2424;stroke-linejoin:round;paint-order:stroke fill markers"
       id="path7014" />
    <path
       d="m 12.291153,347.64156 c -0.02497,0.12486 1.14872,1.04883 1.348498,1.02386 0.224749,-0.0499 0.774137,-1.47336 2.971688,-1.47336 2.397329,0 2.946717,1.17369 2.946717,3.67091 -0.549388,-0.59934 -1.598219,-1.09878 -3.071578,-1.09878 -2.622078,0 -4.59488,1.5233 -4.59488,3.92063 0,1.87292 1.298553,3.67091 4.370131,3.67091 1.698108,0 2.796883,-0.74916 3.346271,-1.32352 l 0.124861,1.09877 c 0,0 1.748052,0.14984 1.822969,0 0.07492,-0.12486 0.199777,-4.12041 0.199777,-6.49276 0,-3.596 -1.648163,-5.49388 -4.894546,-5.49388 -2.996661,0 -4.470019,2.02274 -4.569908,2.49722 z m 1.598219,5.96835 c 0,-1.24861 1.123748,-2.27247 2.771912,-2.27247 1.673135,0 2.896772,0.79911 2.896772,2.22252 0,1.12375 -0.998887,2.19755 -2.846828,2.19755 -1.648163,0 -2.821856,-0.84905 -2.821856,-2.1476 z"
       style="font-size:22px;line-height:1.2;font-family:Mikado;-inkscape-font-specification:Mikado;text-align:start;letter-spacing:0px;text-anchor:start;fill:#a60a50;fill-opacity:1;stroke-width:27.2424;stroke-linejoin:round;paint-order:stroke fill markers"
       id="path7016" />
    <path
       d="m 24.003089,345.66875 c -0.04994,5.09433 -0.04994,11.26246 -0.04994,11.36234 0.04994,0.14984 2.047718,0.19978 2.097663,0.0999 0.07492,-0.0999 0.09989,-5.89343 0.09989,-7.01718 0,-1.44838 1.273581,-2.8718 3.246383,-2.8718 1.847941,0 2.846828,1.39844 2.846828,3.09655 0,1.09878 -0.174805,7.04215 -0.02497,7.0921 0.07492,0.0749 1.997774,0.19978 2.047718,-0.0749 0.09989,-1.3485 0.199777,-5.56879 0.199777,-7.0921 0,-3.19643 -1.947829,-5.06935 -4.519963,-5.06935 -1.648164,0 -3.346272,1.02386 -3.820743,1.92286 0.02497,-0.14983 0.04994,-1.12375 0.04994,-1.59822 -0.12486,-0.22475 -2.047718,-0.0749 -2.172579,0.14983 z"
       style="font-size:22px;line-height:1.2;font-family:Mikado;-inkscape-font-specification:Mikado;text-align:start;letter-spacing:0px;text-anchor:start;fill:#a60a50;fill-opacity:1;stroke-width:27.2424;stroke-linejoin:round;paint-order:stroke fill markers"
       id="path7018" />
    <path
       d="m 45.529105,345.36909 0.04994,1.67313 c -0.824082,-1.04883 -2.07269,-1.82296 -3.845715,-1.82296 -3.421188,0 -5.7436,2.49721 -5.7436,6.09321 0,3.3213 2.272468,5.89343 5.593767,5.94337 1.922858,0 3.346271,-0.82408 3.945604,-1.87291 0.02497,3.27136 -0.948943,5.14427 -3.67091,5.14427 -2.097663,0 -3.471132,-1.39844 -3.67091,-1.29855 -0.224749,0.19977 -0.674248,1.09877 -0.799109,1.54827 0.274694,0.52442 2.147607,1.72308 4.644824,1.72308 3.521077,0 5.718628,-2.14761 5.693656,-7.69143 0,-0.77414 -0.149833,-8.71529 -0.249722,-9.41451 -0.02497,-0.0999 -1.797996,-0.12486 -1.947829,-0.025 z m -7.167014,5.94338 c 0,-2.97169 1.72308,-3.99555 3.670909,-3.99555 2.447273,0 3.595993,1.72308 3.595993,4.07046 0,2.74694 -1.673135,3.94561 -3.620965,3.94561 -2.197551,0 -3.645937,-1.49833 -3.645937,-4.02052 z"
       style="font-size:22px;line-height:1.2;font-family:Mikado;-inkscape-font-specification:Mikado;text-align:start;letter-spacing:0px;text-anchor:start;fill:#a60a50;fill-opacity:1;stroke-width:27.2424;stroke-linejoin:round;paint-order:stroke fill markers"
       id="path7020" />
    <path
       d="m 60.112832,357.43065 c 0.149833,-5.1193 0.324638,-11.86178 0.324638,-11.96167 -0.09989,-0.12486 -2.022746,-0.17481 -2.097663,-0.0499 -0.07492,0.0999 -0.224749,6.29299 -0.249721,7.11707 -0.04995,1.77303 -1.298553,3.17147 -3.296327,3.17147 -1.847941,-0.025 -2.796884,-1.12375 -2.796884,-2.99666 0,-1.3485 0.299666,-6.69255 0.299666,-7.41674 -0.149833,-0.0749 -2.047718,-0.27469 -2.122635,0.0499 -0.09989,1.14872 -0.374582,5.56879 -0.374582,7.46668 0,2.99666 1.348497,4.86957 4.519963,4.86957 1.573247,0 3.146494,-0.87403 3.820743,-1.82297 -0.02497,0.14983 -0.02497,1.02386 -0.04994,1.5233 0.174805,0.22475 1.872913,0.32464 2.022746,0.05 z"
       style="font-size:22px;line-height:1.2;font-family:Mikado;-inkscape-font-specification:Mikado;text-align:start;letter-spacing:0px;text-anchor:start;fill:#a60a50;fill-opacity:1;stroke-width:27.2424;stroke-linejoin:round;paint-order:stroke fill markers"
       id="path7022" />
    <path
       d="m 62.600962,347.64156 c -0.02497,0.12486 1.14872,1.04883 1.348497,1.02386 0.22475,-0.0499 0.774137,-1.47336 2.971689,-1.47336 2.397328,0 2.946716,1.17369 2.946716,3.67091 -0.549388,-0.59934 -1.598219,-1.09878 -3.071577,-1.09878 -2.622078,0 -4.59488,1.5233 -4.59488,3.92063 0,1.87292 1.298553,3.67091 4.37013,3.67091 1.698108,0 2.796884,-0.74916 3.346272,-1.32352 l 0.124861,1.09877 c 0,0 1.748052,0.14984 1.822968,0 0.07492,-0.12486 0.199778,-4.12041 0.199778,-6.49276 0,-3.596 -1.648164,-5.49388 -4.894547,-5.49388 -2.99666,0 -4.470019,2.02274 -4.569907,2.49722 z m 1.598219,5.96835 c 0,-1.24861 1.123748,-2.27247 2.771911,-2.27247 1.673136,0 2.896772,0.79911 2.896772,2.22252 0,1.12375 -0.998887,2.19755 -2.846828,2.19755 -1.648163,0 -2.821855,-0.84905 -2.821855,-2.1476 z"
       style="font-size:22px;line-height:1.2;font-family:Mikado;-inkscape-font-specification:Mikado;text-align:start;letter-spacing:0px;text-anchor:start;fill:#a60a50;fill-opacity:1;stroke-width:27.2424;stroke-linejoin:round;paint-order:stroke fill markers"
       id="path7024" />
    <path
       d="m 83.355095,345.36909 0.04994,1.67313 c -0.824081,-1.04883 -2.07269,-1.82296 -3.845715,-1.82296 -3.421187,0 -5.7436,2.49721 -5.7436,6.09321 0,3.3213 2.272468,5.89343 5.593767,5.94337 1.922858,0 3.346272,-0.82408 3.945604,-1.87291 0.02497,3.27136 -0.948943,5.14427 -3.67091,5.14427 -2.097662,0 -3.471132,-1.39844 -3.670909,-1.29855 -0.22475,0.19977 -0.674249,1.09877 -0.79911,1.54827 0.274694,0.52442 2.147607,1.72308 4.644825,1.72308 3.521076,0 5.718627,-2.14761 5.693655,-7.69143 0,-0.77414 -0.149833,-8.71529 -0.249721,-9.41451 -0.02497,-0.0999 -1.797997,-0.12486 -1.94783,-0.025 z m -7.167014,5.94338 c 0,-2.97169 1.72308,-3.99555 3.67091,-3.99555 2.447273,0 3.595993,1.72308 3.595993,4.07046 0,2.74694 -1.673136,3.94561 -3.620966,3.94561 -2.197551,0 -3.645937,-1.49833 -3.645937,-4.02052 z"
       style="font-size:22px;line-height:1.2;font-family:Mikado;-inkscape-font-specification:Mikado;text-align:start;letter-spacing:0px;text-anchor:start;fill:#a60a50;fill-opacity:1;stroke-width:27.2424;stroke-linejoin:round;paint-order:stroke fill markers"
       id="path7026" />
    <path
       d="m 89.550442,351.93677 c 1.797996,0.0499 7.017181,0.0499 8.215845,-0.0999 0.124861,-0.47447 0.199777,-0.99889 0.199777,-1.74805 0,-2.64705 -2.022746,-4.8446 -4.969462,-4.8446 -3.595993,0 -5.593767,2.94671 -5.593767,6.21807 0,3.19644 1.972801,5.9184 5.718628,5.9184 2.097662,0 3.720854,-0.94894 4.345158,-1.54827 0,-0.29967 -0.724193,-1.54828 -0.874026,-1.62319 -0.774138,0.6243 -1.673136,1.22363 -3.371244,1.22363 -1.922857,0 -3.670909,-1.32352 -3.670909,-3.4961 z m 0.07492,-1.54827 c 0,-1.77303 1.248609,-3.37125 3.271355,-3.37125 1.897885,0 3.046605,1.24861 2.896772,3.29633 z"
       style="font-size:22px;line-height:1.2;font-family:Mikado;-inkscape-font-specification:Mikado;text-align:start;letter-spacing:0px;text-anchor:start;fill:#a60a50;fill-opacity:1;stroke-width:27.2424;stroke-linejoin:round;paint-order:stroke fill markers"
       id="path7028" />
  </g>
</svg>
